<svg version="1.1" viewBox="0.0 0.0 409.0 254.0" fill="none" stroke="none" stroke-linecap="square" stroke-miterlimit="10" width="409" height="254" xmlns:xlink="http://www.w3.org/1999/xlink" xmlns="http://www.w3.org/2000/svg"><path fill="#ffffff" d="M0 0L409.0 0L409.0 254.0L0 254.0L0 0Z" fill-rule="nonzero"/><path stroke="#333333" stroke-width="1.0" stroke-linecap="butt" d="M55.5 30.5L55.5 205.5" fill-rule="nonzero"/><path stroke="#cccccc" stroke-width="1.0" stroke-linecap="butt" d="M122.5 30.5L122.5 205.5" fill-rule="nonzero"/><path stroke="#cccccc" stroke-width="1.0" stroke-linecap="butt" d="M189.5 30.5L189.5 205.5" fill-rule="nonzero"/><path stroke="#cccccc" stroke-width="1.0" stroke-linecap="butt" d="M255.5 30.5L255.5 205.5" fill-rule="nonzero"/><path stroke="#cccccc" stroke-width="1.0" stroke-linecap="butt" d="M322.5 30.5L322.5 205.5" fill-rule="nonzero"/><path stroke="#cccccc" stroke-width="1.0" stroke-linecap="butt" d="M388.5 30.5L388.5 205.5" fill-rule="nonzero"/><path stroke="#cccccc" stroke-width="1.0" stroke-linecap="butt" d="M49.5 205.5L395.5 205.5" fill-rule="nonzero"/><path stroke="#cccccc" stroke-width="1.0" stroke-linecap="butt" d="M49.5 170.5L395.5 170.5" fill-rule="nonzero"/><path stroke="#cccccc" stroke-width="1.0" stroke-linecap="butt" d="M49.5 135.5L395.5 135.5" fill-rule="nonzero"/><path stroke="#cccccc" stroke-width="1.0" stroke-linecap="butt" d="M49.5 100.5L395.5 100.5" fill-rule="nonzero"/><path stroke="#cccccc" stroke-width="1.0" stroke-linecap="butt" d="M49.5 65.5L395.5 65.5" fill-rule="nonzero"/><path stroke="#cccccc" stroke-width="1.0" stroke-linecap="butt" d="M49.5 30.5L395.5 30.5" fill-rule="nonzero"/><clipPath id="id_0"><path d="M49.099068 30.5L395.5 30.5L395.5 205.5L49.099068 205.5L49.099068 30.5Z" clip-rule="nonzero"/></clipPath><path stroke="#4285f4" stroke-width="2.0" stroke-linecap="butt" clip-path="url(#id_0)" d="M55.82715 156.5L189.00505 139.0L255.59401 132.0L322.18295 93.5L388.7719 174.0" fill-rule="nonzero"/><path stroke="#ea4335" stroke-width="2.0" stroke-linecap="butt" clip-path="url(#id_0)" d="M55.82715 156.5L189.00505 104.0L255.59401 111.0L322.18295 167.0" fill-rule="nonzero"/><path stroke="#fbbc04" stroke-width="2.0" stroke-linecap="butt" clip-path="url(#id_0)" d="M55.82715 156.5L189.00505 111.0L255.59401 93.5L322.18295 62.0L388.7719 156.5" fill-rule="nonzero"/><path fill="#4285f4" clip-path="url(#id_0)" d="M52.64517 153.31802L59.00913 153.31802L59.00913 159.68198L52.64517 159.68198Z" fill-rule="nonzero"/><path fill="#4285f4" clip-path="url(#id_0)" d="M185.82307 135.81802L192.18704 135.81802L192.18704 142.18198L185.82307 142.18198Z" fill-rule="nonzero"/><path fill="#4285f4" clip-path="url(#id_0)" d="M252.41203 128.81802L258.776 128.81802L258.776 135.18198L252.41203 135.18198Z" fill-rule="nonzero"/><path fill="#4285f4" clip-path="url(#id_0)" d="M319.00098 90.318016L325.36496 90.318016L325.36496 96.681984L319.00098 96.681984Z" fill-rule="nonzero"/><path fill="#4285f4" clip-path="url(#id_0)" d="M385.58994 170.81802L391.9539 170.81802L391.9539 177.18198L385.58994 177.18198Z" fill-rule="nonzero"/><path fill="#ea4335" clip-path="url(#id_0)" d="M52.64517 153.31802L59.00913 153.31802L59.00913 159.68198L52.64517 159.68198Z" fill-rule="nonzero"/><path fill="#ea4335" clip-path="url(#id_0)" d="M185.82307 100.818016L192.18704 100.818016L192.18704 107.181984L185.82307 107.181984Z" fill-rule="nonzero"/><path fill="#ea4335" clip-path="url(#id_0)" d="M252.41203 107.818016L258.776 107.818016L258.776 114.181984L252.41203 114.181984Z" fill-rule="nonzero"/><path fill="#ea4335" clip-path="url(#id_0)" d="M319.00098 163.81802L325.36496 163.81802L325.36496 170.18198L319.00098 170.18198Z" fill-rule="nonzero"/><path fill="#fbbc04" clip-path="url(#id_0)" d="M52.64517 153.31802L59.00913 153.31802L59.00913 159.68198L52.64517 159.68198Z" fill-rule="nonzero"/><path fill="#fbbc04" clip-path="url(#id_0)" d="M185.82307 107.818016L192.18704 107.818016L192.18704 114.181984L185.82307 114.181984Z" fill-rule="nonzero"/><path fill="#fbbc04" clip-path="url(#id_0)" d="M252.41203 90.318016L258.776 90.318016L258.776 96.681984L252.41203 96.681984Z" fill-rule="nonzero"/><path fill="#fbbc04" clip-path="url(#id_0)" d="M319.00098 58.81802L325.36496 58.81802L325.36496 65.181984L319.00098 65.181984Z" fill-rule="nonzero"/><path fill="#fbbc04" clip-path="url(#id_0)" d="M385.58994 153.31802L391.9539 153.31802L391.9539 159.68198L385.58994 159.68198Z" fill-rule="nonzero"/><path fill="#000000" d="M138.7214 244.98532L138.7214 236.39157L139.87766 236.39157L144.39328 243.14157L144.39328 236.39157L145.48703 236.39157L145.48703 244.98532L144.31516 244.98532L139.79953 238.23532L139.79953 244.98532L138.7214 244.98532ZM151.67453 244.98532L151.67453 244.06345Q150.94016 245.12595 149.69016 245.12595Q149.14328 245.12595 148.6589 244.92282Q148.19016 244.70407 147.95578 244.39157Q147.7214 244.06345 147.62766 243.5947Q147.56516 243.29782 147.56516 242.61032L147.56516 238.76657L148.62766 238.76657L148.62766 242.2197Q148.62766 243.0322 148.69016 243.32907Q148.7839 243.73532 149.0964 243.98532Q149.42453 244.2197 149.9089 244.2197Q150.37766 244.2197 150.7839 243.98532Q151.20578 243.73532 151.37766 243.31345Q151.56516 242.89157 151.56516 242.0947L151.56516 238.76657L152.61203 238.76657L152.61203 244.98532L151.67453 244.98532ZM154.5964 244.98532L154.5964 238.76657L155.5339 238.76657L155.5339 239.64157Q155.83078 239.17282 156.31516 238.9072Q156.79953 238.62595 157.42453 238.62595Q158.11203 238.62595 158.54953 238.9072Q159.00266 239.18845 159.17453 239.70407Q159.92453 238.62595 161.0964 238.62595Q162.0339 238.62595 162.51828 239.14157Q163.01828 239.64157 163.01828 240.7197L163.01828 244.98532L161.9714 244.98532L161.9714 241.06345Q161.9714 240.43845 161.86203 240.1572Q161.76828 239.87595 161.50266 239.70407Q161.23703 239.5322 160.86203 239.5322Q160.20578 239.5322 159.76828 239.9697Q159.3464 240.4072 159.3464 241.37595L159.3464 244.98532L158.2839 244.98532L158.2839 240.93845Q158.2839 240.23532 158.01828 239.89157Q157.76828 239.5322 157.19016 239.5322Q156.73703 239.5322 156.36203 239.76657Q155.98703 240.00095 155.81516 240.45407Q155.64328 240.9072 155.64328 241.75095L155.64328 244.98532L154.5964 244.98532ZM166.56516 244.98532L165.58078 244.98532L165.58078 236.39157L166.64328 236.39157L166.64328 239.45407Q167.31516 238.62595 168.3464 238.62595Q168.92453 238.62595 169.42453 238.86032Q169.94016 239.07907 170.26828 239.50095Q170.61203 239.92282 170.79953 240.51657Q170.98703 241.11032 170.98703 241.7822Q170.98703 243.37595 170.19016 244.25095Q169.39328 245.12595 168.29953 245.12595Q167.19016 245.12595 166.56516 244.20407L166.56516 244.98532ZM166.54953 241.82907Q166.54953 242.93845 166.86203 243.43845Q167.36203 244.25095 168.20578 244.25095Q168.89328 244.25095 169.39328 243.6572Q169.9089 243.06345 169.9089 241.86032Q169.9089 240.64157 169.42453 240.06345Q168.94016 239.48532 168.25266 239.48532Q167.56516 239.48532 167.04953 240.0947Q166.54953 240.68845 166.54953 241.82907ZM176.8464 242.98532L177.94016 243.11032Q177.69016 244.06345 176.98703 244.5947Q176.2839 245.12595 175.20578 245.12595Q173.8464 245.12595 173.0339 244.2822Q172.23703 243.43845 172.23703 241.92282Q172.23703 240.36032 173.04953 239.50095Q173.86203 238.62595 175.14328 238.62595Q176.39328 238.62595 177.17453 239.4697Q177.9714 240.31345 177.9714 241.86032Q177.9714 241.95407 177.9714 242.14157L173.33078 242.14157Q173.39328 243.17282 173.9089 243.7197Q174.42453 244.25095 175.20578 244.25095Q175.7839 244.25095 176.19016 243.95407Q176.61203 243.64157 176.8464 242.98532ZM173.39328 241.2822L176.86203 241.2822Q176.79953 240.48532 176.4714 240.0947Q175.95578 239.48532 175.1589 239.48532Q174.42453 239.48532 173.92453 239.9697Q173.44016 240.45407 173.39328 241.2822ZM179.58078 244.98532L179.58078 238.76657L180.5339 238.76657L180.5339 239.70407Q180.89328 239.04782 181.19016 238.8447Q181.50266 238.62595 181.87766 238.62595Q182.4089 238.62595 182.95578 238.95407L182.5964 239.93845Q182.20578 239.70407 181.83078 239.70407Q181.4714 239.70407 181.19016 239.92282Q180.92453 240.12595 180.81516 240.50095Q180.62766 241.06345 180.62766 241.7197L180.62766 244.98532L179.58078 244.98532ZM186.20578 241.87595Q186.20578 240.14157 187.1589 239.31345Q187.95578 238.62595 189.11203 238.62595Q190.39328 238.62595 191.20578 239.4697Q192.0339 240.29782 192.0339 241.7822Q192.0339 242.98532 191.67453 243.67282Q191.31516 244.36032 190.61203 244.75095Q189.92453 245.12595 189.11203 245.12595Q187.81516 245.12595 187.00266 244.29782Q186.20578 243.45407 186.20578 241.87595ZM187.2839 241.87595Q187.2839 243.06345 187.79953 243.6572Q188.33078 244.25095 189.11203 244.25095Q189.9089 244.25095 190.42453 243.6572Q190.94016 243.06345 190.94016 241.8447Q190.94016 240.68845 190.4089 240.0947Q189.89328 239.50095 189.11203 239.50095Q188.33078 239.50095 187.79953 240.0947Q187.2839 240.67282 187.2839 241.87595ZM193.8464 244.98532L193.8464 239.57907L192.9089 239.57907L192.9089 238.76657L193.8464 238.76657L193.8464 238.0947Q193.8464 237.4697 193.95578 237.17282Q194.11203 236.75095 194.48703 236.50095Q194.87766 236.25095 195.56516 236.25095Q196.01828 236.25095 196.54953 236.36032L196.39328 237.26657Q196.06516 237.2197 195.76828 237.2197Q195.2839 237.2197 195.08078 237.42282Q194.89328 237.62595 194.89328 238.18845L194.89328 238.76657L196.11203 238.76657L196.11203 239.57907L194.89328 239.57907L194.89328 244.98532L193.8464 244.98532ZM198.7839 244.98532L202.08078 236.39157L203.29953 236.39157L206.81516 244.98532L205.5339 244.98532L204.51828 242.37595L200.94016 242.37595L199.98703 244.98532L198.7839 244.98532ZM201.26828 241.45407L204.17453 241.45407L203.2839 239.07907Q202.86203 238.00095 202.67453 237.29782Q202.50266 238.12595 202.20578 238.93845L201.26828 241.45407ZM210.67453 244.98532L210.67453 244.06345Q209.94016 245.12595 208.69016 245.12595Q208.14328 245.12595 207.6589 244.92282Q207.19016 244.70407 206.95578 244.39157Q206.7214 244.06345 206.62766 243.5947Q206.56516 243.29782 206.56516 242.61032L206.56516 238.76657L207.62766 238.76657L207.62766 242.2197Q207.62766 243.0322 207.69016 243.32907Q207.7839 243.73532 208.0964 243.98532Q208.42453 244.2197 208.9089 244.2197Q209.37766 244.2197 209.7839 243.98532Q210.20578 243.73532 210.37766 243.31345Q210.56516 242.89157 210.56516 242.0947L210.56516 238.76657L211.61203 238.76657L211.61203 244.98532L210.67453 244.98532ZM213.39328 245.50095L214.42453 245.6572Q214.48703 246.12595 214.7839 246.3447Q215.17453 246.64157 215.8464 246.64157Q216.58078 246.64157 216.9714 246.3447Q217.37766 246.04782 217.51828 245.5322Q217.61203 245.20407 217.5964 244.17282Q216.9089 244.98532 215.87766 244.98532Q214.5964 244.98532 213.89328 244.06345Q213.19016 243.12595 213.19016 241.8447Q213.19016 240.95407 213.50266 240.20407Q213.83078 239.43845 214.44016 239.0322Q215.04953 238.62595 215.87766 238.62595Q216.98703 238.62595 217.70578 239.51657L217.70578 238.76657L218.67453 238.76657L218.67453 244.14157Q218.67453 245.5947 218.37766 246.20407Q218.08078 246.81345 217.44016 247.1572Q216.79953 247.51657 215.86203 247.51657Q214.75266 247.51657 214.06516 247.01657Q213.37766 246.51657 213.39328 245.50095ZM214.26828 241.76657Q214.26828 242.98532 214.75266 243.54782Q215.23703 244.11032 215.9714 244.11032Q216.70578 244.11032 217.19016 243.54782Q217.69016 242.98532 217.69016 241.79782Q217.69016 240.6572 217.17453 240.07907Q216.67453 239.50095 215.95578 239.50095Q215.25266 239.50095 214.75266 240.07907Q214.26828 240.64157 214.26828 241.76657ZM220.5964 244.98532L220.5964 238.76657L221.5339 238.76657L221.5339 239.64157Q221.83078 239.17282 222.31516 238.9072Q222.79953 238.62595 223.42453 238.62595Q224.11203 238.62595 224.54953 238.9072Q225.00266 239.18845 225.17453 239.70407Q225.92453 238.62595 227.0964 238.62595Q228.0339 238.62595 228.51828 239.14157Q229.01828 239.64157 229.01828 240.7197L229.01828 244.98532L227.9714 244.98532L227.9714 241.06345Q227.9714 240.43845 227.86203 240.1572Q227.76828 239.87595 227.50266 239.70407Q227.23703 239.5322 226.86203 239.5322Q226.20578 239.5322 225.76828 239.9697Q225.3464 240.4072 225.3464 241.37595L225.3464 244.98532L224.2839 244.98532L224.2839 240.93845Q224.2839 240.23532 224.01828 239.89157Q223.76828 239.5322 223.19016 239.5322Q222.73703 239.5322 222.36203 239.76657Q221.98703 240.00095 221.81516 240.45407Q221.64328 240.9072 221.64328 241.75095L221.64328 244.98532L220.5964 244.98532ZM235.8464 242.98532L236.94016 243.11032Q236.69016 244.06345 235.98703 244.5947Q235.2839 245.12595 234.20578 245.12595Q232.8464 245.12595 232.0339 244.2822Q231.23703 243.43845 231.23703 241.92282Q231.23703 240.36032 232.04953 239.50095Q232.86203 238.62595 234.14328 238.62595Q235.39328 238.62595 236.17453 239.4697Q236.9714 240.31345 236.9714 241.86032Q236.9714 241.95407 236.9714 242.14157L232.33078 242.14157Q232.39328 243.17282 232.9089 243.7197Q233.42453 244.25095 234.20578 244.25095Q234.7839 244.25095 235.19016 243.95407Q235.61203 243.64157 235.8464 242.98532ZM232.39328 241.2822L235.86203 241.2822Q235.79953 240.48532 235.4714 240.0947Q234.95578 239.48532 234.1589 239.48532Q233.42453 239.48532 232.92453 239.9697Q232.44016 240.45407 232.39328 241.2822ZM238.5964 244.98532L238.5964 238.76657L239.5339 238.76657L239.5339 239.64157Q240.2214 238.62595 241.51828 238.62595Q242.08078 238.62595 242.54953 238.82907Q243.0339 239.0322 243.26828 239.36032Q243.50266 239.68845 243.5964 240.12595Q243.64328 240.42282 243.64328 241.1572L243.64328 244.98532L242.5964 244.98532L242.5964 241.20407Q242.5964 240.54782 242.4714 240.23532Q242.3464 239.92282 242.0339 239.73532Q241.7214 239.5322 241.29953 239.5322Q240.62766 239.5322 240.12766 239.9697Q239.64328 240.39157 239.64328 241.57907L239.64328 244.98532L238.5964 244.98532ZM247.89328 244.04782L248.04953 244.9697Q247.5964 245.06345 247.25266 245.06345Q246.67453 245.06345 246.36203 244.89157Q246.04953 244.70407 245.9089 244.4072Q245.7839 244.11032 245.7839 243.1572L245.7839 239.57907L245.01828 239.57907L245.01828 238.76657L245.7839 238.76657L245.7839 237.2197L246.83078 236.5947L246.83078 238.76657L247.89328 238.76657L247.89328 239.57907L246.83078 239.57907L246.83078 243.2197Q246.83078 243.67282 246.87766 243.79782Q246.94016 243.92282 247.06516 244.00095Q247.19016 244.07907 247.42453 244.07907Q247.61203 244.07907 247.89328 244.04782ZM252.8464 242.98532L253.94016 243.11032Q253.69016 244.06345 252.98703 244.5947Q252.2839 245.12595 251.20578 245.12595Q249.8464 245.12595 249.0339 244.2822Q248.23703 243.43845 248.23703 241.92282Q248.23703 240.36032 249.04953 239.50095Q249.86203 238.62595 251.14328 238.62595Q252.39328 238.62595 253.17453 239.4697Q253.9714 240.31345 253.9714 241.86032Q253.9714 241.95407 253.9714 242.14157L249.33078 242.14157Q249.39328 243.17282 249.9089 243.7197Q250.42453 244.25095 251.20578 244.25095Q251.7839 244.25095 252.19016 243.95407Q252.61203 243.64157 252.8464 242.98532ZM249.39328 241.2822L252.86203 241.2822Q252.79953 240.48532 252.4714 240.0947Q251.95578 239.48532 251.1589 239.48532Q250.42453 239.48532 249.92453 239.9697Q249.44016 240.45407 249.39328 241.2822ZM259.62766 244.98532L259.62766 244.20407Q259.0339 245.12595 257.89328 245.12595Q257.14328 245.12595 256.51828 244.7197Q255.89328 244.29782 255.54953 243.56345Q255.20578 242.82907 255.20578 241.87595Q255.20578 240.95407 255.51828 240.18845Q255.83078 239.42282 256.45578 239.0322Q257.08078 238.62595 257.8464 238.62595Q258.4089 238.62595 258.8464 238.86032Q259.2839 239.0947 259.56516 239.4697L259.56516 236.39157L260.61203 236.39157L260.61203 244.98532L259.62766 244.98532ZM256.29953 241.87595Q256.29953 243.07907 256.79953 243.67282Q257.29953 244.25095 257.98703 244.25095Q258.67453 244.25095 259.1589 243.68845Q259.64328 243.12595 259.64328 241.9697Q259.64328 240.68845 259.14328 240.0947Q258.6589 239.50095 257.94016 239.50095Q257.23703 239.50095 256.76828 240.07907Q256.29953 240.64157 256.29953 241.87595ZM265.92453 244.98532L265.92453 236.39157L267.04953 236.39157L267.04953 244.98532L265.92453 244.98532ZM268.5964 244.98532L268.5964 238.76657L269.5339 238.76657L269.5339 239.64157Q269.83078 239.17282 270.31516 238.9072Q270.79953 238.62595 271.42453 238.62595Q272.11203 238.62595 272.54953 238.9072Q273.00266 239.18845 273.17453 239.70407Q273.92453 238.62595 275.0964 238.62595Q276.0339 238.62595 276.51828 239.14157Q277.01828 239.64157 277.01828 240.7197L277.01828 244.98532L275.9714 244.98532L275.9714 241.06345Q275.9714 240.43845 275.86203 240.1572Q275.76828 239.87595 275.50266 239.70407Q275.23703 239.5322 274.86203 239.5322Q274.20578 239.5322 273.76828 239.9697Q273.3464 240.4072 273.3464 241.37595L273.3464 244.98532L272.2839 244.98532L272.2839 240.93845Q272.2839 240.23532 272.01828 239.89157Q271.76828 239.5322 271.19016 239.5322Q270.73703 239.5322 270.36203 239.76657Q269.98703 240.00095 269.81516 240.45407Q269.64328 240.9072 269.64328 241.75095L269.64328 244.98532L268.5964 244.98532ZM283.6589 244.2197Q283.06516 244.7197 282.51828 244.92282Q281.98703 245.12595 281.36203 245.12595Q280.33078 245.12595 279.7839 244.62595Q279.23703 244.12595 279.23703 243.3447Q279.23703 242.89157 279.44016 242.51657Q279.64328 242.12595 279.98703 241.9072Q280.33078 241.67282 280.75266 241.56345Q281.04953 241.4697 281.69016 241.39157Q282.95578 241.25095 283.56516 241.0322Q283.56516 240.81345 283.56516 240.76657Q283.56516 240.11032 283.26828 239.8447Q282.86203 239.50095 282.06516 239.50095Q281.33078 239.50095 280.9714 239.76657Q280.61203 240.01657 280.44016 240.67282L279.4089 240.5322Q279.54953 239.87595 279.87766 239.4697Q280.20578 239.06345 280.81516 238.8447Q281.42453 238.62595 282.2214 238.62595Q283.01828 238.62595 283.51828 238.81345Q284.01828 239.00095 284.25266 239.2822Q284.48703 239.56345 284.58078 240.00095Q284.62766 240.26657 284.62766 240.9697L284.62766 242.37595Q284.62766 243.8447 284.69016 244.23532Q284.76828 244.62595 284.9714 244.98532L283.86203 244.98532Q283.70578 244.6572 283.6589 244.2197ZM283.56516 241.86032Q282.98703 242.0947 281.8464 242.26657Q281.19016 242.36032 280.92453 242.48532Q280.6589 242.5947 280.50266 242.81345Q280.36203 243.0322 280.36203 243.31345Q280.36203 243.73532 280.67453 244.01657Q281.00266 244.29782 281.61203 244.29782Q282.2214 244.29782 282.69016 244.0322Q283.17453 243.76657 283.39328 243.29782Q283.56516 242.93845 283.56516 242.25095L283.56516 241.86032ZM286.39328 245.50095L287.42453 245.6572Q287.48703 246.12595 287.7839 246.3447Q288.17453 246.64157 288.8464 246.64157Q289.58078 246.64157 289.9714 246.3447Q290.37766 246.04782 290.51828 245.5322Q290.61203 245.20407 290.5964 244.17282Q289.9089 244.98532 288.87766 244.98532Q287.5964 244.98532 286.89328 244.06345Q286.19016 243.12595 286.19016 241.8447Q286.19016 240.95407 286.50266 240.20407Q286.83078 239.43845 287.44016 239.0322Q288.04953 238.62595 288.87766 238.62595Q289.98703 238.62595 290.70578 239.51657L290.70578 238.76657L291.67453 238.76657L291.67453 244.14157Q291.67453 245.5947 291.37766 246.20407Q291.08078 246.81345 290.44016 247.1572Q289.79953 247.51657 288.86203 247.51657Q287.75266 247.51657 287.06516 247.01657Q286.37766 246.51657 286.39328 245.50095ZM287.26828 241.76657Q287.26828 242.98532 287.75266 243.54782Q288.23703 244.11032 288.9714 244.11032Q289.70578 244.11032 290.19016 243.54782Q290.69016 242.98532 290.69016 241.79782Q290.69016 240.6572 290.17453 240.07907Q289.67453 239.50095 288.95578 239.50095Q288.25266 239.50095 287.75266 240.07907Q287.26828 240.64157 287.26828 241.76657ZM297.8464 242.98532L298.94016 243.11032Q298.69016 244.06345 297.98703 244.5947Q297.2839 245.12595 296.20578 245.12595Q294.8464 245.12595 294.0339 244.2822Q293.23703 243.43845 293.23703 241.92282Q293.23703 240.36032 294.04953 239.50095Q294.86203 238.62595 296.14328 238.62595Q297.39328 238.62595 298.17453 239.4697Q298.9714 240.31345 298.9714 241.86032Q298.9714 241.95407 298.9714 242.14157L294.33078 242.14157Q294.39328 243.17282 294.9089 243.7197Q295.42453 244.25095 296.20578 244.25095Q296.7839 244.25095 297.19016 243.95407Q297.61203 243.64157 297.8464 242.98532ZM294.39328 241.2822L297.86203 241.2822Q297.79953 240.48532 297.4714 240.0947Q296.95578 239.48532 296.1589 239.48532Q295.42453 239.48532 294.92453 239.9697Q294.44016 240.45407 294.39328 241.2822ZM300.17453 243.12595L301.20578 242.9697Q301.29953 243.5947 301.69016 243.92282Q302.0964 244.25095 302.83078 244.25095Q303.54953 244.25095 303.89328 243.9697Q304.25266 243.67282 304.25266 243.26657Q304.25266 242.9072 303.94016 242.70407Q303.7214 242.56345 302.86203 242.3447Q301.70578 242.04782 301.25266 241.8447Q300.81516 241.62595 300.58078 241.25095Q300.3464 240.87595 300.3464 240.4072Q300.3464 240.00095 300.5339 239.64157Q300.7214 239.2822 301.04953 239.04782Q301.29953 238.87595 301.7214 238.75095Q302.14328 238.62595 302.64328 238.62595Q303.36203 238.62595 303.9089 238.8447Q304.4714 239.04782 304.73703 239.4072Q305.00266 239.76657 305.0964 240.36032L304.06516 240.50095Q304.00266 240.0322 303.6589 239.76657Q303.33078 239.48532 302.70578 239.48532Q301.98703 239.48532 301.67453 239.73532Q301.36203 239.9697 301.36203 240.29782Q301.36203 240.50095 301.48703 240.6572Q301.62766 240.82907 301.89328 240.93845Q302.04953 241.00095 302.83078 241.20407Q303.95578 241.51657 304.39328 241.70407Q304.83078 241.89157 305.08078 242.25095Q305.33078 242.61032 305.33078 243.1572Q305.33078 243.68845 305.01828 244.1572Q304.7214 244.61032 304.14328 244.87595Q303.56516 245.12595 302.83078 245.12595Q301.61203 245.12595 300.9714 244.62595Q300.3464 244.11032 300.17453 243.12595Z" fill-rule="nonzero"/><path fill="#000000" d="M19.696774 170.85408L11.103024 167.5572L11.103024 166.33846L19.696774 162.82283L19.696774 164.10408L17.087399 165.1197L17.087399 168.69783L19.696774 169.65096L19.696774 170.85408ZM16.165524 168.3697L16.165524 165.46346L13.790524 166.35408Q12.712399 166.77596 12.009274 166.96346Q12.837399 167.13533 13.649899 167.4322L16.165524 168.3697ZM19.696774 162.91658L11.103024 162.91658L11.103024 159.66658Q11.103024 158.82283 11.181149 158.3697Q11.290524 157.72908 11.587399 157.3072Q11.884274 156.8697 12.415524 156.6197Q12.946774 156.35408 13.587399 156.35408Q14.681149 156.35408 15.446774 157.0572Q16.196774 157.7447 16.196774 159.57283L16.196774 161.77596L19.696774 161.77596L19.696774 162.91658ZM15.196774 161.77596L15.196774 159.5572Q15.196774 158.44783 14.790524 157.9947Q14.368649 157.52596 13.618649 157.52596Q13.087399 157.52596 12.712399 157.8072Q12.321774 158.07283 12.196774 158.51033Q12.118649 158.8072 12.118649 159.57283L12.118649 161.77596L15.196774 161.77596ZM18.743649 146.04158Q19.181149 146.41658 19.446774 146.88533Q19.712399 147.35408 19.712399 147.83846Q19.712399 148.35408 19.415524 148.85408Q19.103024 149.33846 18.478024 149.65096Q17.837399 149.94783 17.087399 149.94783Q16.149899 149.94783 15.212399 149.47908Q14.274899 148.9947 13.806149 148.29158Q13.337399 147.58846 13.337399 146.91658Q13.337399 146.40096 13.618649 145.94783Q13.884274 145.47908 14.415524 145.15096L13.509274 144.94783L13.509274 143.90096L17.446774 144.7447Q18.259274 144.91658 18.353024 144.91658Q18.509274 144.91658 18.634274 144.8072Q18.743649 144.6822 18.743649 144.51033Q18.743649 144.19783 18.384274 143.69783Q17.915524 143.02596 17.134274 142.63533Q16.337399 142.2447 15.493649 142.2447Q14.524899 142.2447 13.681149 142.7447Q12.821774 143.2447 12.321774 144.2447Q11.806149 145.22908 11.806149 146.4322Q11.806149 147.8072 12.446774 148.94783Q13.087399 150.07283 14.290524 150.69783Q15.478024 151.32283 16.853024 151.32283Q18.290524 151.32283 19.337399 150.69783Q20.368649 150.07283 20.853024 148.90096Q21.353024 147.71346 21.353024 146.27596Q21.353024 144.7447 20.837399 143.71346Q20.321774 142.66658 19.587399 142.15096L19.587399 141.08846Q20.196774 141.38533 20.837399 142.1197Q21.478024 142.83846 21.853024 143.83846Q22.228024 144.83846 22.228024 146.26033Q22.228024 147.5572 21.884274 148.66658Q21.556149 149.76033 20.884274 150.54158Q20.212399 151.3072 19.337399 151.69783Q18.228024 152.1822 16.946774 152.1822Q15.524899 152.1822 14.228024 151.60408Q12.634274 150.88533 11.790524 149.57283Q10.946774 148.26033 10.946774 146.38533Q10.946774 144.9322 11.540524 143.77596Q12.134274 142.6197 13.321774 141.94783Q14.321774 141.3697 15.524899 141.3697Q17.212399 141.3697 18.540524 142.57283Q19.728024 143.63533 19.728024 144.90096Q19.728024 145.3072 19.603024 145.5572Q19.478024 145.8072 19.243649 145.91658Q19.103024 145.9947 18.743649 146.04158ZM17.149899 148.8697Q17.962399 148.8697 18.415524 148.4947Q18.853024 148.10408 18.853024 147.6197Q18.853024 147.29158 18.649899 146.9322Q18.446774 146.5572 18.071774 146.22908Q17.681149 145.90096 17.087399 145.69783Q16.493649 145.47908 15.899899 145.47908Q15.103024 145.47908 14.665524 145.88533Q14.212399 146.27596 14.212399 146.83846Q14.212399 147.21346 14.415524 147.54158Q14.603024 147.8697 15.024899 148.1822Q15.446774 148.4947 16.056149 148.6822Q16.649899 148.8697 17.149899 148.8697ZM19.696774 136.71346L11.103024 136.71346L11.103024 135.58846L19.696774 135.58846L19.696774 136.71346ZM16.587399 134.4322Q14.853024 134.4322 14.024899 133.47908Q13.337399 132.6822 13.337399 131.52596Q13.337399 130.2447 14.181149 129.4322Q15.009274 128.60408 16.493649 128.60408Q17.696774 128.60408 18.384274 128.96346Q19.071774 129.32283 19.462399 130.02596Q19.837399 130.71346 19.837399 131.52596Q19.837399 132.82283 19.009274 133.63533Q18.165524 134.4322 16.587399 134.4322ZM16.587399 133.35408Q17.774899 133.35408 18.368649 132.83846Q18.962399 132.3072 18.962399 131.52596Q18.962399 130.72908 18.368649 130.21346Q17.774899 129.69783 16.556149 129.69783Q15.399899 129.69783 14.806149 130.22908Q14.212399 130.7447 14.212399 131.52596Q14.212399 132.3072 14.806149 132.83846Q15.384274 133.35408 16.587399 133.35408ZM11.103024 121.27596L11.103024 120.13534L16.071774 120.13534Q17.368649 120.13534 18.134274 120.43221Q18.884274 120.72909 19.368649 121.49471Q19.837399 122.26034 19.837399 123.49471Q19.837399 124.69784 19.431149 125.47909Q19.009274 126.24471 18.228024 126.57284Q17.431149 126.90096 16.071774 126.90096L11.103024 126.90096L11.103024 125.76034L16.056149 125.76034Q17.181149 125.76034 17.712399 125.55721Q18.243649 125.33846 18.540524 124.83846Q18.821774 124.32284 18.821774 123.58846Q18.821774 122.33846 18.259274 121.80721Q17.681149 121.27596 16.056149 121.27596L11.103024 121.27596ZM19.696774 114.74471L18.493649 114.74471L18.493649 113.54159L19.696774 113.54159L19.696774 114.74471ZM17.446774 112.33846L17.353024 111.22909Q18.165524 111.10409 18.571774 110.66659Q18.978024 110.21346 18.978024 109.57284Q18.978024 108.82284 18.399899 108.29159Q17.821774 107.76034 16.884274 107.76034Q15.978024 107.76034 15.462399 108.27596Q14.931149 108.77596 14.931149 109.60409Q14.931149 110.10409 15.165524 110.52596Q15.399899 110.93221 15.759274 111.16659L15.634274 112.15096L11.228024 111.32284L11.228024 107.04159L12.228024 107.04159L12.228024 110.47909L14.540524 110.93221Q13.993649 110.16659 13.993649 109.32284Q13.993649 108.19784 14.774899 107.43221Q15.556149 106.65096 16.790524 106.65096Q17.946774 106.65096 18.806149 107.32284Q19.837399 108.15096 19.837399 109.57284Q19.837399 110.74471 19.181149 111.49471Q18.524899 112.22909 17.446774 112.33846ZM15.462399 105.33846Q13.931149 105.33846 13.009274 105.02596Q12.071774 104.71346 11.571774 104.10409Q11.071774 103.47909 11.071774 102.54159Q11.071774 101.85409 11.353024 101.33846Q11.634274 100.807205 12.165524 100.463455Q12.681149 100.119705 13.431149 99.932205Q14.181149 99.744705 15.462399 99.744705Q16.978024 99.744705 17.899899 100.057205Q18.821774 100.35408 19.337399 100.97908Q19.837399 101.58846 19.837399 102.54159Q19.837399 103.77596 18.946774 104.49471Q17.884274 105.33846 15.462399 105.33846ZM15.462399 104.26034Q17.571774 104.26034 18.274899 103.76034Q18.978024 103.26034 18.978024 102.54159Q18.978024 101.80721 18.274899 101.32284Q17.571774 100.82283 15.462399 100.82283Q13.337399 100.82283 12.649899 101.32284Q11.946774 101.80721 11.946774 102.55721Q11.946774 103.27596 12.556149 103.71346Q13.337399 104.26034 15.462399 104.26034ZM17.009274 98.869705L16.165524 98.869705L16.165524 92.182205L17.009274 92.182205L17.009274 98.869705ZM19.696774 90.744705L18.493649 90.744705L18.493649 89.54158L19.696774 89.54158L19.696774 90.744705ZM17.712399 88.182205L17.618649 87.16658Q18.337399 87.04158 18.665524 86.682205Q18.978024 86.307205 18.978024 85.744705Q18.978024 85.26033 18.759274 84.900955Q18.524899 84.525955 18.165524 84.29158Q17.790524 84.057205 17.165524 83.900955Q16.524899 83.744705 15.868649 83.744705Q15.790524 83.744705 15.649899 83.744705Q16.149899 84.057205 16.478024 84.60408Q16.790524 85.150955 16.790524 85.79158Q16.790524 86.869705 16.024899 87.60408Q15.243649 88.338455 13.978024 88.338455Q12.665524 88.338455 11.868649 87.57283Q11.071774 86.79158 11.071774 85.63533Q11.071774 84.807205 11.524899 84.119705Q11.978024 83.41658 12.821774 83.057205Q13.649899 82.69783 15.228024 82.69783Q16.868649 82.69783 17.853024 83.057205Q18.821774 83.400955 19.337399 84.119705Q19.837399 84.82283 19.837399 85.76033Q19.837399 86.775955 19.290524 87.41658Q18.728024 88.057205 17.712399 88.182205ZM13.915524 83.869705Q13.009274 83.869705 12.478024 84.35408Q11.946774 84.82283 11.946774 85.51033Q11.946774 86.213455 12.524899 86.744705Q13.087399 87.26033 14.009274 87.26033Q14.821774 87.26033 15.337399 86.76033Q15.853024 86.26033 15.853024 85.54158Q15.853024 84.807205 15.337399 84.338455Q14.821774 83.869705 13.915524 83.869705ZM17.446774 81.338455L17.353024 80.22908Q18.165524 80.10408 18.571774 79.66658Q18.978024 79.213455 18.978024 78.57283Q18.978024 77.82283 18.399899 77.29158Q17.821774 76.76033 16.884274 76.76033Q15.978024 76.76033 15.462399 77.275955Q14.931149 77.775955 14.931149 78.60408Q14.931149 79.10408 15.165524 79.525955Q15.399899 79.932205 15.759274 80.16658L15.634274 81.150955L11.228024 80.32283L11.228024 76.04158L12.228024 76.04158L12.228024 79.47908L14.540524 79.932205Q13.993649 79.16658 13.993649 78.32283Q13.993649 77.19783 14.774899 76.432205Q15.556149 75.650955 16.790524 75.650955Q17.946774 75.650955 18.806149 76.32283Q19.837399 77.150955 19.837399 78.57283Q19.837399 79.744705 19.181149 80.494705Q18.524899 81.22908 17.446774 81.338455Z" fill-rule="nonzero"/><path fill="#000000" d="M29.661568 202.03125L29.661568 201.01562L35.224068 201.01562L35.224068 201.84375Q34.411568 202.71875 33.599068 204.17188Q32.802193 205.60938 32.364693 207.14062Q32.036568 208.21875 31.958443 209.5L30.864693 209.5Q30.880318 208.48438 31.255318 207.04688Q31.645943 205.60938 32.349068 204.28125Q33.067818 202.95312 33.880318 202.03125L29.661568 202.03125ZM40.567818 209.5L39.520943 209.5L39.520943 202.78125Q39.130318 203.14062 38.505318 203.51562Q37.895943 203.875 37.411568 204.04688L37.411568 203.03125Q38.286568 202.60938 38.942818 202.03125Q39.614693 201.4375 39.895943 200.875L40.567818 200.875L40.567818 209.5Z" fill-rule="nonzero"/><path fill="#000000" d="M29.661568 167.03125L29.661568 166.01562L35.224068 166.01562L35.224068 166.84375Q34.411568 167.71875 33.599068 169.17188Q32.802193 170.60938 32.364693 172.14062Q32.036568 173.21875 31.958443 174.5L30.864693 174.5Q30.880318 173.48438 31.255318 172.04688Q31.645943 170.60938 32.349068 169.28125Q33.067818 167.95312 33.880318 167.03125L29.661568 167.03125ZM42.145943 173.48438L42.145943 174.5L36.458443 174.5Q36.458443 174.125 36.583443 173.76562Q36.802193 173.1875 37.270943 172.625Q37.755318 172.0625 38.661568 171.32812Q40.067818 170.17188 40.552193 169.5Q41.052193 168.82812 41.052193 168.23438Q41.052193 167.60938 40.599068 167.1875Q40.145943 166.75 39.427193 166.75Q38.661568 166.75 38.208443 167.20312Q37.755318 167.65625 37.739693 168.46875L36.661568 168.35938Q36.770943 167.14062 37.489693 166.51562Q38.224068 165.875 39.458443 165.875Q40.692818 165.875 41.411568 166.5625Q42.130318 167.25 42.130318 168.26562Q42.130318 168.78125 41.911568 169.28125Q41.708443 169.76562 41.208443 170.32812Q40.724068 170.875 39.599068 171.82812Q38.645943 172.625 38.364693 172.92188Q38.099068 173.20312 37.927193 173.48438L42.145943 173.48438Z" fill-rule="nonzero"/><path fill="#000000" d="M29.661568 132.03125L29.661568 131.01562L35.224068 131.01562L35.224068 131.84375Q34.411568 132.71875 33.599068 134.17188Q32.802193 135.60938 32.364693 137.14062Q32.036568 138.21875 31.958443 139.5L30.864693 139.5Q30.880318 138.48438 31.255318 137.04688Q31.645943 135.60938 32.349068 134.28125Q33.067818 132.95312 33.880318 132.03125L29.661568 132.03125ZM36.599068 137.23438L37.661568 137.09375Q37.833443 137.98438 38.270943 138.39062Q38.708443 138.78125 39.333443 138.78125Q40.083443 138.78125 40.599068 138.26562Q41.114693 137.75 41.114693 136.98438Q41.114693 136.26562 40.630318 135.79688Q40.161568 135.3125 39.427193 135.3125Q39.130318 135.3125 38.677193 135.4375L38.802193 134.5Q38.911568 134.51562 38.974068 134.51562Q39.645943 134.51562 40.177193 134.17188Q40.724068 133.8125 40.724068 133.07812Q40.724068 132.5 40.333443 132.125Q39.942818 131.73438 39.317818 131.73438Q38.708443 131.73438 38.286568 132.125Q37.880318 132.51562 37.770943 133.28125L36.708443 133.09375Q36.895943 132.04688 37.583443 131.46875Q38.270943 130.875 39.286568 130.875Q39.989693 130.875 40.583443 131.1875Q41.177193 131.48438 41.489693 132.0Q41.802193 132.51562 41.802193 133.10938Q41.802193 133.65625 41.505318 134.125Q41.208443 134.57812 40.630318 134.84375Q41.380318 135.01562 41.802193 135.57812Q42.224068 136.125 42.224068 136.96875Q42.224068 138.09375 41.395943 138.875Q40.583443 139.65625 39.333443 139.65625Q38.208443 139.65625 37.458443 138.98438Q36.708443 138.29688 36.599068 137.23438Z" fill-rule="nonzero"/><path fill="#000000" d="M29.661568 97.03125L29.661568 96.015625L35.224068 96.015625L35.224068 96.84375Q34.411568 97.71875 33.599068 99.171875Q32.802193 100.609375 32.364693 102.140625Q32.036568 103.21875 31.958443 104.5L30.864693 104.5Q30.880318 103.484375 31.255318 102.046875Q31.645943 100.609375 32.349068 99.28125Q33.067818 97.953125 33.880318 97.03125L29.661568 97.03125ZM39.974068 104.5L39.974068 102.4375L36.255318 102.4375L36.255318 101.46875L40.177193 95.90625L41.036568 95.90625L41.036568 101.46875L42.192818 101.46875L42.192818 102.4375L41.036568 102.4375L41.036568 104.5L39.974068 104.5ZM39.974068 101.46875L39.974068 97.609375L37.286568 101.46875L39.974068 101.46875Z" fill-rule="nonzero"/><path fill="#000000" d="M29.661568 62.03125L29.661568 61.015625L35.224068 61.015625L35.224068 61.84375Q34.411568 62.71875 33.599068 64.171875Q32.802193 65.609375 32.364693 67.140625Q32.036568 68.21875 31.958443 69.5L30.864693 69.5Q30.880318 68.484375 31.255318 67.046875Q31.645943 65.609375 32.349068 64.28125Q33.067818 62.953125 33.880318 62.03125L29.661568 62.03125ZM36.599068 67.25L37.708443 67.15625Q37.833443 67.96875 38.270943 68.375Q38.724068 68.78125 39.364693 68.78125Q40.114693 68.78125 40.645943 68.203125Q41.177193 67.625 41.177193 66.6875Q41.177193 65.78125 40.661568 65.265625Q40.161568 64.734375 39.333443 64.734375Q38.833443 64.734375 38.411568 64.96875Q38.005318 65.203125 37.770943 65.5625L36.786568 65.4375L37.614693 61.03125L41.895943 61.03125L41.895943 62.03125L38.458443 62.03125L38.005318 64.34375Q38.770943 63.796875 39.614693 63.796875Q40.739693 63.796875 41.505318 64.578125Q42.286568 65.359375 42.286568 66.59375Q42.286568 67.75 41.614693 68.609375Q40.786568 69.640625 39.364693 69.640625Q38.192818 69.640625 37.442818 68.984375Q36.708443 68.328125 36.599068 67.25Z" fill-rule="nonzero"/><path fill="#000000" d="M29.661568 27.03125L29.661568 26.015625L35.224068 26.015625L35.224068 26.84375Q34.411568 27.71875 33.599068 29.171875Q32.802193 30.609375 32.364693 32.140625Q32.036568 33.21875 31.958443 34.5L30.864693 34.5Q30.880318 33.484375 31.255318 32.046875Q31.645943 30.609375 32.349068 29.28125Q33.067818 27.953125 33.880318 27.03125L29.661568 27.03125ZM42.067818 28.015625L41.020943 28.09375Q40.880318 27.46875 40.630318 27.1875Q40.192818 26.734375 39.567818 26.734375Q39.067818 26.734375 38.677193 27.015625Q38.192818 27.390625 37.895943 28.09375Q37.614693 28.78125 37.599068 30.0625Q37.974068 29.484375 38.520943 29.203125Q39.083443 28.921875 39.692818 28.921875Q40.739693 28.921875 41.474068 29.703125Q42.224068 30.484375 42.224068 31.703125Q42.224068 32.515625 41.864693 33.21875Q41.520943 33.90625 40.911568 34.28125Q40.302193 34.640625 39.536568 34.640625Q38.208443 34.640625 37.380318 33.671875Q36.552193 32.703125 36.552193 30.484375Q36.552193 27.984375 37.474068 26.859375Q38.270943 25.875 39.630318 25.875Q40.645943 25.875 41.286568 26.453125Q41.942818 27.015625 42.067818 28.015625ZM37.770943 31.71875Q37.770943 32.265625 37.989693 32.765625Q38.224068 33.25 38.630318 33.515625Q39.052193 33.78125 39.520943 33.78125Q40.177193 33.78125 40.661568 33.25Q41.145943 32.703125 41.145943 31.78125Q41.145943 30.890625 40.661568 30.375Q40.192818 29.859375 39.474068 29.859375Q38.755318 29.859375 38.255318 30.375Q37.770943 30.890625 37.770943 31.71875Z" fill-rule="nonzero"/><path fill="#000000" d="M52.82715 218.26562Q52.82715 216.73438 53.13965 215.8125Q53.45215 214.875 54.061523 214.375Q54.686523 213.875 55.624023 213.875Q56.311523 213.875 56.82715 214.15625Q57.3584 214.4375 57.70215 214.96875Q58.0459 215.48438 58.2334 216.23438Q58.4209 216.98438 58.4209 218.26562Q58.4209 219.78125 58.1084 220.70312Q57.811523 221.625 57.186523 222.14062Q56.57715 222.64062 55.624023 222.64062Q54.38965 222.64062 53.6709 221.75Q52.82715 220.6875 52.82715 218.26562ZM53.905273 218.26562Q53.905273 220.375 54.405273 221.07812Q54.905273 221.78125 55.624023 221.78125Q56.3584 221.78125 56.842773 221.07812Q57.342773 220.375 57.342773 218.26562Q57.342773 216.14062 56.842773 215.45312Q56.3584 214.75 55.6084 214.75Q54.88965 214.75 54.45215 215.35938Q53.905273 216.14062 53.905273 218.26562Z" fill-rule="nonzero"/><path fill="#000000" d="M117.962975 221.48438L117.962975 222.5L112.275475 222.5Q112.275475 222.125 112.400475 221.76562Q112.619225 221.1875 113.087975 220.625Q113.57235 220.0625 114.4786 219.32812Q115.88485 218.17188 116.369225 217.5Q116.869225 216.82812 116.869225 216.23438Q116.869225 215.60938 116.4161 215.1875Q115.962975 214.75 115.244225 214.75Q114.4786 214.75 114.025475 215.20312Q113.57235 215.65625 113.556725 216.46875L112.4786 216.35938Q112.587975 215.14062 113.306725 214.51562Q114.0411 213.875 115.275475 213.875Q116.50985 213.875 117.2286 214.5625Q117.94735 215.25 117.94735 216.26562Q117.94735 216.78125 117.7286 217.28125Q117.525475 217.76562 117.025475 218.32812Q116.5411 218.875 115.4161 219.82812Q114.462975 220.625 114.181725 220.92188Q113.9161 221.20312 113.744225 221.48438L117.962975 221.48438ZM119.4161 220.25L120.525475 220.15625Q120.650475 220.96875 121.087975 221.375Q121.5411 221.78125 122.181725 221.78125Q122.931725 221.78125 123.462975 221.20312Q123.994225 220.625 123.994225 219.6875Q123.994225 218.78125 123.4786 218.26562Q122.9786 217.73438 122.150475 217.73438Q121.650475 217.73438 121.2286 217.96875Q120.82235 218.20312 120.587975 218.5625L119.6036 218.4375L120.431725 214.03125L124.712975 214.03125L124.712975 215.03125L121.275475 215.03125L120.82235 217.34375Q121.587975 216.79688 122.431725 216.79688Q123.556725 216.79688 124.32235 217.57812Q125.1036 218.35938 125.1036 219.59375Q125.1036 220.75 124.431725 221.60938Q123.6036 222.64062 122.181725 222.64062Q121.00985 222.64062 120.25985 221.98438Q119.525475 221.32812 119.4161 220.25ZM126.4161 218.26562Q126.4161 216.73438 126.7286 215.8125Q127.0411 214.875 127.650475 214.375Q128.27548 213.875 129.21298 213.875Q129.90048 213.875 130.4161 214.15625Q130.94736 214.4375 131.2911 214.96875Q131.63486 215.48438 131.82236 216.23438Q132.00986 216.98438 132.00986 218.26562Q132.00986 219.78125 131.69736 220.70312Q131.40048 221.625 130.77548 222.14062Q130.1661 222.64062 129.21298 222.64062Q127.9786 222.64062 127.25985 221.75Q126.4161 220.6875 126.4161 218.26562ZM127.494225 218.26562Q127.494225 220.375 127.994225 221.07812Q128.49423 221.78125 129.21298 221.78125Q129.94736 221.78125 130.43173 221.07812Q130.93173 220.375 130.93173 218.26562Q130.93173 216.14062 130.43173 215.45312Q129.94736 214.75 129.19736 214.75Q128.4786 214.75 128.0411 215.35938Q127.494225 216.14062 127.494225 218.26562Z" fill-rule="nonzero"/><path fill="#000000" d="M179.00505 220.25L180.11443 220.15625Q180.23943 220.96875 180.67693 221.375Q181.13005 221.78125 181.77068 221.78125Q182.52068 221.78125 183.05193 221.20312Q183.58318 220.625 183.58318 219.6875Q183.58318 218.78125 183.06755 218.26562Q182.56755 217.73438 181.73943 217.73438Q181.23943 217.73438 180.81755 217.96875Q180.4113 218.20312 180.17693 218.5625L179.19255 218.4375L180.02068 214.03125L184.30193 214.03125L184.30193 215.03125L180.86443 215.03125L180.4113 217.34375Q181.17693 216.79688 182.02068 216.79688Q183.14568 216.79688 183.9113 217.57812Q184.69255 218.35938 184.69255 219.59375Q184.69255 220.75 184.02068 221.60938Q183.19255 222.64062 181.77068 222.64062Q180.5988 222.64062 179.8488 221.98438Q179.11443 221.32812 179.00505 220.25ZM186.00505 218.26562Q186.00505 216.73438 186.31755 215.8125Q186.63005 214.875 187.23943 214.375Q187.86443 213.875 188.80193 213.875Q189.48943 213.875 190.00505 214.15625Q190.5363 214.4375 190.88005 214.96875Q191.2238 215.48438 191.4113 216.23438Q191.5988 216.98438 191.5988 218.26562Q191.5988 219.78125 191.2863 220.70312Q190.98943 221.625 190.36443 222.14062Q189.75505 222.64062 188.80193 222.64062Q187.56755 222.64062 186.8488 221.75Q186.00505 220.6875 186.00505 218.26562ZM187.08318 218.26562Q187.08318 220.375 187.58318 221.07812Q188.08318 221.78125 188.80193 221.78125Q189.5363 221.78125 190.02068 221.07812Q190.52068 220.375 190.52068 218.26562Q190.52068 216.14062 190.02068 215.45312Q189.5363 214.75 188.7863 214.75Q188.06755 214.75 187.63005 215.35938Q187.08318 216.14062 187.08318 218.26562ZM193.00505 218.26562Q193.00505 216.73438 193.31755 215.8125Q193.63005 214.875 194.23943 214.375Q194.86443 213.875 195.80193 213.875Q196.48943 213.875 197.00505 214.15625Q197.5363 214.4375 197.88005 214.96875Q198.2238 215.48438 198.4113 216.23438Q198.5988 216.98438 198.5988 218.26562Q198.5988 219.78125 198.2863 220.70312Q197.98943 221.625 197.36443 222.14062Q196.75505 222.64062 195.80193 222.64062Q194.56755 222.64062 193.8488 221.75Q193.00505 220.6875 193.00505 218.26562ZM194.08318 218.26562Q194.08318 220.375 194.58318 221.07812Q195.08318 221.78125 195.80193 221.78125Q196.5363 221.78125 197.02068 221.07812Q197.52068 220.375 197.52068 218.26562Q197.52068 216.14062 197.02068 215.45312Q196.5363 214.75 195.7863 214.75Q195.06755 214.75 194.63005 215.35938Q194.08318 216.14062 194.08318 218.26562Z" fill-rule="nonzero"/><path fill="#000000" d="M245.65651 215.03125L245.65651 214.01562L251.21901 214.01562L251.21901 214.84375Q250.40651 215.71875 249.59401 217.17188Q248.79713 218.60938 248.35963 220.14062Q248.03151 221.21875 247.95338 222.5L246.85963 222.5Q246.87526 221.48438 247.25026 220.04688Q247.64088 218.60938 248.34401 217.28125Q249.06276 215.95312 249.87526 215.03125L245.65651 215.03125ZM252.59401 220.25L253.70338 220.15625Q253.82838 220.96875 254.26588 221.375Q254.71901 221.78125 255.35963 221.78125Q256.10962 221.78125 256.64087 221.20312Q257.17212 220.625 257.17212 219.6875Q257.17212 218.78125 256.6565 218.26562Q256.1565 217.73438 255.32838 217.73438Q254.82838 217.73438 254.40651 217.96875Q254.00026 218.20312 253.76588 218.5625L252.78151 218.4375L253.60963 214.03125L257.89087 214.03125L257.89087 215.03125L254.45338 215.03125L254.00026 217.34375Q254.76588 216.79688 255.60963 216.79688Q256.73462 216.79688 257.50024 217.57812Q258.2815 218.35938 258.2815 219.59375Q258.2815 220.75 257.60962 221.60938Q256.7815 222.64062 255.35963 222.64062Q254.18776 222.64062 253.43776 221.98438Q252.70338 221.32812 252.59401 220.25ZM259.594 218.26562Q259.594 216.73438 259.9065 215.8125Q260.219 214.875 260.82837 214.375Q261.45337 213.875 262.39087 213.875Q263.07837 213.875 263.594 214.15625Q264.12524 214.4375 264.469 214.96875Q264.81274 215.48438 265.00024 216.23438Q265.18774 216.98438 265.18774 218.26562Q265.18774 219.78125 264.87524 220.70312Q264.57837 221.625 263.95337 222.14062Q263.344 222.64062 262.39087 222.64062Q261.1565 222.64062 260.43774 221.75Q259.594 220.6875 259.594 218.26562ZM260.67212 218.26562Q260.67212 220.375 261.17212 221.07812Q261.67212 221.78125 262.39087 221.78125Q263.12524 221.78125 263.60962 221.07812Q264.10962 220.375 264.10962 218.26562Q264.10962 216.14062 263.60962 215.45312Q263.12524 214.75 262.37524 214.75Q261.6565 214.75 261.219 215.35938Q260.67212 216.14062 260.67212 218.26562Z" fill-rule="nonzero"/><path fill="#000000" d="M312.6517 222.5L311.60483 222.5L311.60483 215.78125Q311.2142 216.14062 310.5892 216.51562Q309.97983 216.875 309.49545 217.04688L309.49545 216.03125Q310.37045 215.60938 311.0267 215.03125Q311.69858 214.4375 311.97983 213.875L312.6517 213.875L312.6517 222.5ZM315.68295 218.26562Q315.68295 216.73438 315.99545 215.8125Q316.30795 214.875 316.91733 214.375Q317.54233 213.875 318.47983 213.875Q319.16733 213.875 319.68295 214.15625Q320.2142 214.4375 320.55795 214.96875Q320.9017 215.48438 321.0892 216.23438Q321.2767 216.98438 321.2767 218.26562Q321.2767 219.78125 320.9642 220.70312Q320.66733 221.625 320.04233 222.14062Q319.43295 222.64062 318.47983 222.64062Q317.24545 222.64062 316.5267 221.75Q315.68295 220.6875 315.68295 218.26562ZM316.76108 218.26562Q316.76108 220.375 317.26108 221.07812Q317.76108 221.78125 318.47983 221.78125Q319.2142 221.78125 319.69858 221.07812Q320.19858 220.375 320.19858 218.26562Q320.19858 216.14062 319.69858 215.45312Q319.2142 214.75 318.4642 214.75Q317.74545 214.75 317.30795 215.35938Q316.76108 216.14062 316.76108 218.26562ZM322.68295 218.26562Q322.68295 216.73438 322.99545 215.8125Q323.30795 214.875 323.91733 214.375Q324.54233 213.875 325.47983 213.875Q326.16733 213.875 326.68295 214.15625Q327.2142 214.4375 327.55795 214.96875Q327.9017 215.48438 328.0892 216.23438Q328.2767 216.98438 328.2767 218.26562Q328.2767 219.78125 327.9642 220.70312Q327.66733 221.625 327.04233 222.14062Q326.43295 222.64062 325.47983 222.64062Q324.24545 222.64062 323.5267 221.75Q322.68295 220.6875 322.68295 218.26562ZM323.76108 218.26562Q323.76108 220.375 324.26108 221.07812Q324.76108 221.78125 325.47983 221.78125Q326.2142 221.78125 326.69858 221.07812Q327.19858 220.375 327.19858 218.26562Q327.19858 216.14062 326.69858 215.45312Q326.2142 214.75 325.4642 214.75Q324.74545 214.75 324.30795 215.35938Q323.76108 216.14062 323.76108 218.26562ZM329.68295 218.26562Q329.68295 216.73438 329.99545 215.8125Q330.30795 214.875 330.91733 214.375Q331.54233 213.875 332.47983 213.875Q333.16733 213.875 333.68295 214.15625Q334.2142 214.4375 334.55795 214.96875Q334.9017 215.48438 335.0892 216.23438Q335.2767 216.98438 335.2767 218.26562Q335.2767 219.78125 334.9642 220.70312Q334.66733 221.625 334.04233 222.14062Q333.43295 222.64062 332.47983 222.64062Q331.24545 222.64062 330.5267 221.75Q329.68295 220.6875 329.68295 218.26562ZM330.76108 218.26562Q330.76108 220.375 331.26108 221.07812Q331.76108 221.78125 332.47983 221.78125Q333.2142 221.78125 333.69858 221.07812Q334.19858 220.375 334.19858 218.26562Q334.19858 216.14062 333.69858 215.45312Q333.2142 214.75 332.4642 214.75Q331.74545 214.75 331.30795 215.35938Q330.76108 216.14062 330.76108 218.26562Z" fill-rule="nonzero"/><path fill="#000000" d="M379.24066 222.5L378.1938 222.5L378.1938 215.78125Q377.80316 216.14062 377.17816 216.51562Q376.5688 216.875 376.0844 217.04688L376.0844 216.03125Q376.9594 215.60938 377.61566 215.03125Q378.28754 214.4375 378.5688 213.875L379.24066 213.875L379.24066 222.5ZM387.8188 221.48438L387.8188 222.5L382.1313 222.5Q382.1313 222.125 382.2563 221.76562Q382.47504 221.1875 382.9438 220.625Q383.42816 220.0625 384.3344 219.32812Q385.74066 218.17188 386.22504 217.5Q386.72504 216.82812 386.72504 216.23438Q386.72504 215.60938 386.2719 215.1875Q385.8188 214.75 385.10004 214.75Q384.3344 214.75 383.8813 215.20312Q383.42816 215.65625 383.41254 216.46875L382.3344 216.35938Q382.4438 215.14062 383.16254 214.51562Q383.8969 213.875 385.1313 213.875Q386.36566 213.875 387.0844 214.5625Q387.80316 215.25 387.80316 216.26562Q387.80316 216.78125 387.5844 217.28125Q387.3813 217.76562 386.8813 218.32812Q386.3969 218.875 385.2719 219.82812Q384.3188 220.625 384.03754 220.92188Q383.7719 221.20312 383.60004 221.48438L387.8188 221.48438ZM389.2719 220.25L390.3813 220.15625Q390.5063 220.96875 390.9438 221.375Q391.3969 221.78125 392.03754 221.78125Q392.78754 221.78125 393.3188 221.20312Q393.85004 220.625 393.85004 219.6875Q393.85004 218.78125 393.3344 218.26562Q392.8344 217.73438 392.0063 217.73438Q391.5063 217.73438 391.0844 217.96875Q390.67816 218.20312 390.4438 218.5625L389.4594 218.4375L390.28754 214.03125L394.5688 214.03125L394.5688 215.03125L391.1313 215.03125L390.67816 217.34375Q391.4438 216.79688 392.28754 216.79688Q393.41254 216.79688 394.17816 217.57812Q394.9594 218.35938 394.9594 219.59375Q394.9594 220.75 394.28754 221.60938Q393.4594 222.64062 392.03754 222.64062Q390.86566 222.64062 390.11566 221.98438Q389.3813 221.32812 389.2719 220.25ZM396.2719 218.26562Q396.2719 216.73438 396.5844 215.8125Q396.8969 214.875 397.5063 214.375Q398.1313 213.875 399.0688 213.875Q399.7563 213.875 400.2719 214.15625Q400.80316 214.4375 401.1469 214.96875Q401.49066 215.48438 401.67816 216.23438Q401.86566 216.98438 401.86566 218.26562Q401.86566 219.78125 401.55316 220.70312Q401.2563 221.625 400.6313 222.14062Q400.0219 222.64062 399.0688 222.64062Q397.8344 222.64062 397.11566 221.75Q396.2719 220.6875 396.2719 218.26562ZM397.35004 218.26562Q397.35004 220.375 397.85004 221.07812Q398.35004 221.78125 399.0688 221.78125Q399.80316 221.78125 400.28754 221.07812Q400.78754 220.375 400.78754 218.26562Q400.78754 216.14062 400.28754 215.45312Q399.80316 214.75 399.05316 214.75Q398.3344 214.75 397.8969 215.35938Q397.35004 216.14062 397.35004 218.26562Z" fill-rule="nonzero"/><path fill="#4285f4" d="M86.237175 12.647146L94.72246 12.647146L94.72246 21.132427L86.237175 21.132427Z" fill-rule="nonzero"/><path fill="#1a1a1a" d="M111.54232 17.874163L112.66732 18.171038Q112.307945 19.561663 111.38607 20.296038Q110.464195 21.030413 109.120445 21.030413Q107.72982 21.030413 106.85482 20.467913Q105.97982 19.905413 105.526695 18.842913Q105.07357 17.764788 105.07357 16.530413Q105.07357 15.186663 105.589195 14.186663Q106.10482 13.186663 107.04232 12.671038Q107.995445 12.155413 109.13607 12.155413Q110.41732 12.155413 111.29232 12.811663Q112.182945 13.467913 112.526695 14.655413L111.401695 14.921038Q111.10482 13.983538 110.526695 13.561663Q109.964195 13.124163 109.10482 13.124163Q108.120445 13.124163 107.44857 13.608538Q106.79232 14.077288 106.51107 14.874163Q106.245445 15.671038 106.245445 16.530413Q106.245445 17.624163 106.557945 18.436663Q106.88607 19.249163 107.557945 19.655413Q108.22982 20.061663 109.026695 20.061663Q109.97982 20.061663 110.63607 19.514788Q111.307945 18.967913 111.54232 17.874163ZM113.88607 17.780413Q113.88607 16.046038 114.839195 15.217913Q115.63607 14.530413 116.79232 14.530413Q118.07357 14.530413 118.88607 15.374163Q119.714195 16.202288 119.714195 17.686663Q119.714195 18.889788 119.35482 19.577288Q118.995445 20.264788 118.29232 20.655413Q117.60482 21.030413 116.79232 21.030413Q115.495445 21.030413 114.682945 20.202288Q113.88607 19.358538 113.88607 17.780413ZM114.964195 17.780413Q114.964195 18.967913 115.47982 19.561663Q116.01107 20.155413 116.79232 20.155413Q117.589195 20.155413 118.10482 19.561663Q118.620445 18.967913 118.620445 17.749163Q118.620445 16.592913 118.089195 15.999163Q117.57357 15.405413 116.79232 15.405413Q116.01107 15.405413 115.47982 15.999163Q114.964195 16.577288 114.964195 17.780413ZM121.276695 23.280413L121.276695 14.671038L122.22982 14.671038L122.22982 15.467913Q122.57357 14.999163 122.995445 14.764788Q123.432945 14.530413 124.04232 14.530413Q124.839195 14.530413 125.44857 14.936663Q126.057945 15.342913 126.35482 16.092913Q126.66732 16.842913 126.66732 17.733538Q126.66732 18.686663 126.32357 19.452288Q125.995445 20.217913 125.339195 20.624163Q124.682945 21.030413 123.964195 21.030413Q123.432945 21.030413 123.01107 20.811663Q122.589195 20.577288 122.32357 20.249163L122.32357 23.280413L121.276695 23.280413ZM122.22982 17.811663Q122.22982 19.014788 122.714195 19.592913Q123.19857 20.155413 123.88607 20.155413Q124.589195 20.155413 125.089195 19.561663Q125.589195 18.967913 125.589195 17.717913Q125.589195 16.530413 125.10482 15.952288Q124.620445 15.358538 123.932945 15.358538Q123.26107 15.358538 122.745445 15.983538Q122.22982 16.608538 122.22982 17.811663ZM128.22983 23.280413L128.10483 22.296038Q128.44858 22.389788 128.7142 22.389788Q129.05795 22.389788 129.26108 22.264788Q129.47983 22.155413 129.62045 21.952288Q129.7142 21.780413 129.94858 21.155413Q129.9642 21.077288 130.04233 20.905413L127.66732 14.671038L128.80795 14.671038L130.10483 18.264788Q130.35483 18.952288 130.55795 19.717913Q130.74545 18.983538 130.99545 18.296038L132.32358 14.671038L133.37045 14.671038L131.01108 20.999163Q130.62045 22.014788 130.41733 22.405413Q130.13608 22.936663 129.76108 23.171038Q129.4017 23.421038 128.9017 23.421038Q128.60483 23.421038 128.22983 23.280413ZM132.85483 18.311663L132.85483 17.249163L136.10483 17.249163L136.10483 18.311663L132.85483 18.311663ZM137.4017 20.889788L137.4017 12.296038L140.6517 12.296038Q141.49545 12.296038 141.94858 12.374163Q142.5892 12.483538 143.01108 12.780413Q143.44858 13.077288 143.69858 13.608538Q143.9642 14.139788 143.9642 14.780413Q143.9642 15.874163 143.26108 16.639788Q142.57358 17.389788 140.74545 17.389788L138.54233 17.389788L138.54233 20.889788L137.4017 20.889788ZM138.54233 16.389788L140.76108 16.389788Q141.87045 16.389788 142.32358 15.983538Q142.79233 15.561663 142.79233 14.811663Q142.79233 14.280413 142.51108 13.905413Q142.24545 13.514788 141.80795 13.389788Q141.51108 13.311663 140.74545 13.311663L138.54233 13.311663L138.54233 16.389788ZM149.3392 20.124163Q148.74545 20.624163 148.19858 20.827288Q147.66733 21.030413 147.04233 21.030413Q146.01108 21.030413 145.4642 20.530413Q144.91733 20.030413 144.91733 19.249163Q144.91733 18.796038 145.12045 18.421038Q145.32358 18.030413 145.66733 17.811663Q146.01108 17.577288 146.43295 17.467913Q146.72983 17.374163 147.37045 17.296038Q148.63608 17.155413 149.24545 16.936663Q149.24545 16.717913 149.24545 16.671038Q149.24545 16.014788 148.94858 15.749163Q148.54233 15.405413 147.74545 15.405413Q147.01108 15.405413 146.6517 15.671038Q146.29233 15.921038 146.12045 16.577288L145.0892 16.436663Q145.22983 15.780413 145.55795 15.374163Q145.88608 14.967913 146.49545 14.749163Q147.10483 14.530413 147.9017 14.530413Q148.69858 14.530413 149.19858 14.717913Q149.69858 14.905413 149.93295 15.186663Q150.16733 15.467913 150.26108 15.905413Q150.30795 16.171038 150.30795 16.874163L150.30795 18.280413Q150.30795 19.749163 150.37045 20.139788Q150.44858 20.530413 150.6517 20.889788L149.54233 20.889788Q149.38608 20.561663 149.3392 20.124163ZM149.24545 17.764788Q148.66733 17.999163 147.5267 18.171038Q146.87045 18.264788 146.60483 18.389788Q146.3392 18.499163 146.18295 18.717913Q146.04233 18.936663 146.04233 19.217913Q146.04233 19.639788 146.35483 19.921038Q146.68295 20.202288 147.29233 20.202288Q147.9017 20.202288 148.37045 19.936663Q148.85483 19.671038 149.07358 19.202288Q149.24545 18.842913 149.24545 18.155413L149.24545 17.764788ZM151.85483 19.030413L152.88608 18.874163Q152.97983 19.499163 153.37045 19.827288Q153.7767 20.155413 154.51108 20.155413Q155.22983 20.155413 155.57358 19.874163Q155.93295 19.577288 155.93295 19.171038Q155.93295 18.811663 155.62045 18.608538Q155.4017 18.467913 154.54233 18.249163Q153.38608 17.952288 152.93295 17.749163Q152.49545 17.530413 152.26108 17.155413Q152.0267 16.780413 152.0267 16.311663Q152.0267 15.905413 152.2142 15.546038Q152.4017 15.186663 152.72983 14.952288Q152.97983 14.780413 153.4017 14.655413Q153.82358 14.530413 154.32358 14.530413Q155.04233 14.530413 155.5892 14.749163Q156.1517 14.952288 156.41733 15.311663Q156.68295 15.671038 156.7767 16.264788L155.74545 16.405413Q155.68295 15.936663 155.3392 15.671038Q155.01108 15.389788 154.38608 15.389788Q153.66733 15.389788 153.35483 15.639788Q153.04233 15.874163 153.04233 16.202288Q153.04233 16.405413 153.16733 16.561663Q153.30795 16.733538 153.57358 16.842913Q153.72983 16.905413 154.51108 17.108538Q155.63608 17.421038 156.07358 17.608538Q156.51108 17.796038 156.76108 18.155413Q157.01108 18.514788 157.01108 19.061663Q157.01108 19.592913 156.69858 20.061663Q156.4017 20.514788 155.82358 20.780413Q155.24545 21.030413 154.51108 21.030413Q153.29233 21.030413 152.6517 20.530413Q152.0267 20.014788 151.85483 19.030413ZM161.57358 19.952288L161.72983 20.874163Q161.2767 20.967913 160.93295 20.967913Q160.35483 20.967913 160.04233 20.796038Q159.72983 20.608538 159.5892 20.311663Q159.4642 20.014788 159.4642 19.061663L159.4642 15.483538L158.69858 15.483538L158.69858 14.671038L159.4642 14.671038L159.4642 13.124163L160.51108 12.499163L160.51108 14.671038L161.57358 14.671038L161.57358 15.483538L160.51108 15.483538L160.51108 19.124163Q160.51108 19.577288 160.55795 19.702288Q160.62045 19.827288 160.74545 19.905413Q160.87045 19.983538 161.10483 19.983538Q161.29233 19.983538 161.57358 19.952288ZM166.5267 18.889788L167.62045 19.014788Q167.37045 19.967913 166.66733 20.499163Q165.9642 21.030413 164.88608 21.030413Q163.5267 21.030413 162.7142 20.186663Q161.91733 19.342913 161.91733 17.827288Q161.91733 16.264788 162.72983 15.405413Q163.54233 14.530413 164.82358 14.530413Q166.07358 14.530413 166.85483 15.374163Q167.6517 16.217913 167.6517 17.764788Q167.6517 17.858538 167.6517 18.046038L163.01108 18.046038Q163.07358 19.077288 163.5892 19.624163Q164.10483 20.155413 164.88608 20.155413Q165.4642 20.155413 165.87045 19.858538Q166.29233 19.546038 166.5267 18.889788ZM163.07358 17.186663L166.54233 17.186663Q166.47983 16.389788 166.1517 15.999163Q165.63608 15.389788 164.8392 15.389788Q164.10483 15.389788 163.60483 15.874163Q163.12045 16.358538 163.07358 17.186663Z" fill-rule="nonzero"/><path fill="#ea4335" d="M186.23718 12.647146L194.72246 12.647146L194.72246 21.132427L186.23718 21.132427Z" fill-rule="nonzero"/><path fill="#1a1a1a" d="M205.40169 20.889788L205.40169 12.296038L208.65169 12.296038Q209.49544 12.296038 209.94856 12.374163Q210.58919 12.483538 211.01106 12.780413Q211.44856 13.077288 211.69856 13.608538Q211.96419 14.139788 211.96419 14.780413Q211.96419 15.874163 211.26106 16.639788Q210.57356 17.389788 208.74544 17.389788L206.54231 17.389788L206.54231 20.889788L205.40169 20.889788ZM206.54231 16.389788L208.76106 16.389788Q209.87044 16.389788 210.32356 15.983538Q210.79231 15.561663 210.79231 14.811663Q210.79231 14.280413 210.51106 13.905413Q210.24544 13.514788 209.80794 13.389788Q209.51106 13.311663 208.74544 13.311663L206.54231 13.311663L206.54231 16.389788ZM217.33919 20.124163Q216.74544 20.624163 216.19856 20.827288Q215.66731 21.030413 215.04231 21.030413Q214.01106 21.030413 213.46419 20.530413Q212.91731 20.030413 212.91731 19.249163Q212.91731 18.796038 213.12044 18.421038Q213.32356 18.030413 213.66731 17.811663Q214.01106 17.577288 214.43294 17.467913Q214.72981 17.374163 215.37044 17.296038Q216.63606 17.155413 217.24544 16.936663Q217.24544 16.717913 217.24544 16.671038Q217.24544 16.014788 216.94856 15.749163Q216.54231 15.405413 215.74544 15.405413Q215.01106 15.405413 214.65169 15.671038Q214.29231 15.921038 214.12044 16.577288L213.08919 16.436663Q213.22981 15.780413 213.55794 15.374163Q213.88606 14.967913 214.49544 14.749163Q215.10481 14.530413 215.90169 14.530413Q216.69856 14.530413 217.19856 14.717913Q217.69856 14.905413 217.93294 15.186663Q218.16731 15.467913 218.26106 15.905413Q218.30794 16.171038 218.30794 16.874163L218.30794 18.280413Q218.30794 19.749163 218.37044 20.139788Q218.44856 20.530413 218.65169 20.889788L217.54231 20.889788Q217.38606 20.561663 217.33919 20.124163ZM217.24544 17.764788Q216.66731 17.999163 215.52669 18.171038Q214.87044 18.264788 214.60481 18.389788Q214.33919 18.499163 214.18294 18.717913Q214.04231 18.936663 214.04231 19.217913Q214.04231 19.639788 214.35481 19.921038Q214.68294 20.202288 215.29231 20.202288Q215.90169 20.202288 216.37044 19.936663Q216.85481 19.671038 217.07356 19.202288Q217.24544 18.842913 217.24544 18.155413L217.24544 17.764788ZM222.57356 19.952288L222.72981 20.874163Q222.27669 20.967913 221.93294 20.967913Q221.35481 20.967913 221.04231 20.796038Q220.72981 20.608538 220.58919 20.311663Q220.46419 20.014788 220.46419 19.061663L220.46419 15.483538L219.69856 15.483538L219.69856 14.671038L220.46419 14.671038L220.46419 13.124163L221.51106 12.499163L221.51106 14.671038L222.57356 14.671038L222.57356 15.483538L221.51106 15.483538L221.51106 19.124163Q221.51106 19.577288 221.55794 19.702288Q221.62044 19.827288 221.74544 19.905413Q221.87044 19.983538 222.10481 19.983538Q222.29231 19.983538 222.57356 19.952288ZM223.26106 20.889788L223.26106 14.671038L224.21419 14.671038L224.21419 15.608538Q224.57356 14.952288 224.87044 14.749163Q225.18294 14.530413 225.55794 14.530413Q226.08919 14.530413 226.63606 14.858538L226.27669 15.842913Q225.88606 15.608538 225.51106 15.608538Q225.15169 15.608538 224.87044 15.827288Q224.60481 16.030413 224.49544 16.405413Q224.30794 16.967913 224.30794 17.624163L224.30794 20.889788L223.26106 20.889788ZM227.27669 13.514788L227.27669 12.296038L228.33919 12.296038L228.33919 13.514788L227.27669 13.514788ZM227.27669 20.889788L227.27669 14.671038L228.33919 14.671038L228.33919 20.889788L227.27669 20.889788ZM234.33919 18.608538L235.37044 18.749163Q235.19856 19.811663 234.49544 20.421038Q233.79231 21.030413 232.77669 21.030413Q231.49544 21.030413 230.71419 20.202288Q229.94856 19.358538 229.94856 17.796038Q229.94856 16.796038 230.27669 16.046038Q230.62044 15.280413 231.29231 14.905413Q231.97981 14.530413 232.79231 14.530413Q233.79231 14.530413 234.43294 15.046038Q235.08919 15.546038 235.27669 16.499163L234.24544 16.655413Q234.10481 16.030413 233.72981 15.717913Q233.35481 15.389788 232.82356 15.389788Q232.02669 15.389788 231.52669 15.967913Q231.02669 16.530413 231.02669 17.764788Q231.02669 19.030413 231.51106 19.592913Q231.99544 20.155413 232.76106 20.155413Q233.38606 20.155413 233.79231 19.780413Q234.21419 19.405413 234.33919 18.608538ZM236.27669 20.889788L236.27669 12.296038L237.33919 12.296038L237.33919 17.202288L239.82356 14.671038L241.19856 14.671038L238.80794 16.967913L241.43294 20.889788L240.13606 20.889788L238.07356 17.702288L237.33919 18.421038L237.33919 20.889788L236.27669 20.889788Z" fill-rule="nonzero"/><path fill="#fbbc04" d="M259.23718 12.647146L267.72247 12.647146L267.72247 21.132427L259.23718 21.132427Z" fill-rule="nonzero"/><path fill="#1a1a1a" d="M284.54233 17.874163L285.66733 18.171038Q285.30795 19.561663 284.38608 20.296038Q283.4642 21.030413 282.12045 21.030413Q280.72983 21.030413 279.85483 20.467913Q278.97983 19.905413 278.5267 18.842913Q278.07358 17.764788 278.07358 16.530413Q278.07358 15.186663 278.5892 14.186663Q279.10483 13.186663 280.04233 12.671038Q280.99545 12.155413 282.13608 12.155413Q283.41733 12.155413 284.29233 12.811663Q285.18295 13.467913 285.5267 14.655413L284.4017 14.921038Q284.10483 13.983538 283.5267 13.561663Q282.9642 13.124163 282.10483 13.124163Q281.12045 13.124163 280.44858 13.608538Q279.79233 14.077288 279.51108 14.874163Q279.24545 15.671038 279.24545 16.530413Q279.24545 17.624163 279.55795 18.436663Q279.88608 19.249163 280.55795 19.655413Q281.22983 20.061663 282.0267 20.061663Q282.97983 20.061663 283.63608 19.514788Q284.30795 18.967913 284.54233 17.874163ZM286.88608 17.780413Q286.88608 16.046038 287.8392 15.217913Q288.63608 14.530413 289.79233 14.530413Q291.07358 14.530413 291.88608 15.374163Q292.7142 16.202288 292.7142 17.686663Q292.7142 18.889788 292.35483 19.577288Q291.99545 20.264788 291.29233 20.655413Q290.60483 21.030413 289.79233 21.030413Q288.49545 21.030413 287.68295 20.202288Q286.88608 19.358538 286.88608 17.780413ZM287.9642 17.780413Q287.9642 18.967913 288.47983 19.561663Q289.01108 20.155413 289.79233 20.155413Q290.5892 20.155413 291.10483 19.561663Q291.62045 18.967913 291.62045 17.749163Q291.62045 16.592913 291.0892 15.999163Q290.57358 15.405413 289.79233 15.405413Q289.01108 15.405413 288.47983 15.999163Q287.9642 16.577288 287.9642 17.780413ZM294.2767 23.280413L294.2767 14.671038L295.22983 14.671038L295.22983 15.467913Q295.57358 14.999163 295.99545 14.764788Q296.43295 14.530413 297.04233 14.530413Q297.8392 14.530413 298.44858 14.936663Q299.05795 15.342913 299.35483 16.092913Q299.66733 16.842913 299.66733 17.733538Q299.66733 18.686663 299.32358 19.452288Q298.99545 20.217913 298.3392 20.624163Q297.68295 21.030413 296.9642 21.030413Q296.43295 21.030413 296.01108 20.811663Q295.5892 20.577288 295.32358 20.249163L295.32358 23.280413L294.2767 23.280413ZM295.22983 17.811663Q295.22983 19.014788 295.7142 19.592913Q296.19858 20.155413 296.88608 20.155413Q297.5892 20.155413 298.0892 19.561663Q298.5892 18.967913 298.5892 17.717913Q298.5892 16.530413 298.10483 15.952288Q297.62045 15.358538 296.93295 15.358538Q296.26108 15.358538 295.74545 15.983538Q295.22983 16.608538 295.22983 17.811663ZM301.22983 23.280413L301.10483 22.296038Q301.44858 22.389788 301.7142 22.389788Q302.05795 22.389788 302.26108 22.264788Q302.47983 22.155413 302.62045 21.952288Q302.7142 21.780413 302.94858 21.155413Q302.9642 21.077288 303.04233 20.905413L300.66733 14.671038L301.80795 14.671038L303.10483 18.264788Q303.35483 18.952288 303.55795 19.717913Q303.74545 18.983538 303.99545 18.296038L305.32358 14.671038L306.37045 14.671038L304.01108 20.999163Q303.62045 22.014788 303.41733 22.405413Q303.13608 22.936663 302.76108 23.171038Q302.4017 23.421038 301.9017 23.421038Q301.60483 23.421038 301.22983 23.280413ZM305.85483 18.311663L305.85483 17.249163L309.10483 17.249163L309.10483 18.311663L305.85483 18.311663ZM310.4017 20.889788L310.4017 12.296038L313.6517 12.296038Q314.49545 12.296038 314.94858 12.374163Q315.5892 12.483538 316.01108 12.780413Q316.44858 13.077288 316.69858 13.608538Q316.9642 14.139788 316.9642 14.780413Q316.9642 15.874163 316.26108 16.639788Q315.57358 17.389788 313.74545 17.389788L311.54233 17.389788L311.54233 20.889788L310.4017 20.889788ZM311.54233 16.389788L313.76108 16.389788Q314.87045 16.389788 315.32358 15.983538Q315.79233 15.561663 315.79233 14.811663Q315.79233 14.280413 315.51108 13.905413Q315.24545 13.514788 314.80795 13.389788Q314.51108 13.311663 313.74545 13.311663L311.54233 13.311663L311.54233 16.389788ZM322.3392 20.124163Q321.74545 20.624163 321.19858 20.827288Q320.66733 21.030413 320.04233 21.030413Q319.01108 21.030413 318.4642 20.530413Q317.91733 20.030413 317.91733 19.249163Q317.91733 18.796038 318.12045 18.421038Q318.32358 18.030413 318.66733 17.811663Q319.01108 17.577288 319.43295 17.467913Q319.72983 17.374163 320.37045 17.296038Q321.63608 17.155413 322.24545 16.936663Q322.24545 16.717913 322.24545 16.671038Q322.24545 16.014788 321.94858 15.749163Q321.54233 15.405413 320.74545 15.405413Q320.01108 15.405413 319.6517 15.671038Q319.29233 15.921038 319.12045 16.577288L318.0892 16.436663Q318.22983 15.780413 318.55795 15.374163Q318.88608 14.967913 319.49545 14.749163Q320.10483 14.530413 320.9017 14.530413Q321.69858 14.530413 322.19858 14.717913Q322.69858 14.905413 322.93295 15.186663Q323.16733 15.467913 323.26108 15.905413Q323.30795 16.171038 323.30795 16.874163L323.30795 18.280413Q323.30795 19.749163 323.37045 20.139788Q323.44858 20.530413 323.6517 20.889788L322.54233 20.889788Q322.38608 20.561663 322.3392 20.124163ZM322.24545 17.764788Q321.66733 17.999163 320.5267 18.171038Q319.87045 18.264788 319.60483 18.389788Q319.3392 18.499163 319.18295 18.717913Q319.04233 18.936663 319.04233 19.217913Q319.04233 19.639788 319.35483 19.921038Q319.68295 20.202288 320.29233 20.202288Q320.9017 20.202288 321.37045 19.936663Q321.85483 19.671038 322.07358 19.202288Q322.24545 18.842913 322.24545 18.155413L322.24545 17.764788ZM324.85483 19.030413L325.88608 18.874163Q325.97983 19.499163 326.37045 19.827288Q326.7767 20.155413 327.51108 20.155413Q328.22983 20.155413 328.57358 19.874163Q328.93295 19.577288 328.93295 19.171038Q328.93295 18.811663 328.62045 18.608538Q328.4017 18.467913 327.54233 18.249163Q326.38608 17.952288 325.93295 17.749163Q325.49545 17.530413 325.26108 17.155413Q325.0267 16.780413 325.0267 16.311663Q325.0267 15.905413 325.2142 15.546038Q325.4017 15.186663 325.72983 14.952288Q325.97983 14.780413 326.4017 14.655413Q326.82358 14.530413 327.32358 14.530413Q328.04233 14.530413 328.5892 14.749163Q329.1517 14.952288 329.41733 15.311663Q329.68295 15.671038 329.7767 16.264788L328.74545 16.405413Q328.68295 15.936663 328.3392 15.671038Q328.01108 15.389788 327.38608 15.389788Q326.66733 15.389788 326.35483 15.639788Q326.04233 15.874163 326.04233 16.202288Q326.04233 16.405413 326.16733 16.561663Q326.30795 16.733538 326.57358 16.842913Q326.72983 16.905413 327.51108 17.108538Q328.63608 17.421038 329.07358 17.608538Q329.51108 17.796038 329.76108 18.155413Q330.01108 18.514788 330.01108 19.061663Q330.01108 19.592913 329.69858 20.061663Q329.4017 20.514788 328.82358 20.780413Q328.24545 21.030413 327.51108 21.030413Q326.29233 21.030413 325.6517 20.530413Q325.0267 20.014788 324.85483 19.030413ZM334.57358 19.952288L334.72983 20.874163Q334.2767 20.967913 333.93295 20.967913Q333.35483 20.967913 333.04233 20.796038Q332.72983 20.608538 332.5892 20.311663Q332.4642 20.014788 332.4642 19.061663L332.4642 15.483538L331.69858 15.483538L331.69858 14.671038L332.4642 14.671038L332.4642 13.124163L333.51108 12.499163L333.51108 14.671038L334.57358 14.671038L334.57358 15.483538L333.51108 15.483538L333.51108 19.124163Q333.51108 19.577288 333.55795 19.702288Q333.62045 19.827288 333.74545 19.905413Q333.87045 19.983538 334.10483 19.983538Q334.29233 19.983538 334.57358 19.952288ZM339.5267 18.889788L340.62045 19.014788Q340.37045 19.967913 339.66733 20.499163Q338.9642 21.030413 337.88608 21.030413Q336.5267 21.030413 335.7142 20.186663Q334.91733 19.342913 334.91733 17.827288Q334.91733 16.264788 335.72983 15.405413Q336.54233 14.530413 337.82358 14.530413Q339.07358 14.530413 339.85483 15.374163Q340.6517 16.217913 340.6517 17.764788Q340.6517 17.858538 340.6517 18.046038L336.01108 18.046038Q336.07358 19.077288 336.5892 19.624163Q337.10483 20.155413 337.88608 20.155413Q338.4642 20.155413 338.87045 19.858538Q339.29233 19.546038 339.5267 18.889788ZM336.07358 17.186663L339.54233 17.186663Q339.47983 16.389788 339.1517 15.999163Q338.63608 15.389788 337.8392 15.389788Q337.10483 15.389788 336.60483 15.874163Q336.12045 16.358538 336.07358 17.186663ZM347.47983 19.499163L347.47983 17.139788L345.1517 17.139788L345.1517 16.155413L347.47983 16.155413L347.47983 13.827288L348.47983 13.827288L348.47983 16.155413L350.82358 16.155413L350.82358 17.139788L348.47983 17.139788L348.47983 19.499163L347.47983 19.499163ZM355.4017 20.889788L355.4017 12.296038L358.6517 12.296038Q359.49545 12.296038 359.94858 12.374163Q360.5892 12.483538 361.01108 12.780413Q361.44858 13.077288 361.69858 13.608538Q361.9642 14.139788 361.9642 14.780413Q361.9642 15.874163 361.26108 16.639788Q360.57358 17.389788 358.74545 17.389788L356.54233 17.389788L356.54233 20.889788L355.4017 20.889788ZM356.54233 16.389788L358.76108 16.389788Q359.87045 16.389788 360.32358 15.983538Q360.79233 15.561663 360.79233 14.811663Q360.79233 14.280413 360.51108 13.905413Q360.24545 13.514788 359.80795 13.389788Q359.51108 13.311663 358.74545 13.311663L356.54233 13.311663L356.54233 16.389788ZM367.3392 20.124163Q366.74545 20.624163 366.19858 20.827288Q365.66733 21.030413 365.04233 21.030413Q364.01108 21.030413 363.4642 20.530413Q362.91733 20.030413 362.91733 19.249163Q362.91733 18.796038 363.12045 18.421038Q363.32358 18.030413 363.66733 17.811663Q364.01108 17.577288 364.43295 17.467913Q364.72983 17.374163 365.37045 17.296038Q366.63608 17.155413 367.24545 16.936663Q367.24545 16.717913 367.24545 16.671038Q367.24545 16.014788 366.94858 15.749163Q366.54233 15.405413 365.74545 15.405413Q365.01108 15.405413 364.6517 15.671038Q364.29233 15.921038 364.12045 16.577288L363.0892 16.436663Q363.22983 15.780413 363.55795 15.374163Q363.88608 14.967913 364.49545 14.749163Q365.10483 14.530413 365.9017 14.530413Q366.69858 14.530413 367.19858 14.717913Q367.69858 14.905413 367.93295 15.186663Q368.16733 15.467913 368.26108 15.905413Q368.30795 16.171038 368.30795 16.874163L368.30795 18.280413Q368.30795 19.749163 368.37045 20.139788Q368.44858 20.530413 368.6517 20.889788L367.54233 20.889788Q367.38608 20.561663 367.3392 20.124163ZM367.24545 17.764788Q366.66733 17.999163 365.5267 18.171038Q364.87045 18.264788 364.60483 18.389788Q364.3392 18.499163 364.18295 18.717913Q364.04233 18.936663 364.04233 19.217913Q364.04233 19.639788 364.35483 19.921038Q364.68295 20.202288 365.29233 20.202288Q365.9017 20.202288 366.37045 19.936663Q366.85483 19.671038 367.07358 19.202288Q367.24545 18.842913 367.24545 18.155413L367.24545 17.764788ZM372.57358 19.952288L372.72983 20.874163Q372.2767 20.967913 371.93295 20.967913Q371.35483 20.967913 371.04233 20.796038Q370.72983 20.608538 370.5892 20.311663Q370.4642 20.014788 370.4642 19.061663L370.4642 15.483538L369.69858 15.483538L369.69858 14.671038L370.4642 14.671038L370.4642 13.124163L371.51108 12.499163L371.51108 14.671038L372.57358 14.671038L372.57358 15.483538L371.51108 15.483538L371.51108 19.124163Q371.51108 19.577288 371.55795 19.702288Q371.62045 19.827288 371.74545 19.905413Q371.87045 19.983538 372.10483 19.983538Q372.29233 19.983538 372.57358 19.952288ZM373.26108 20.889788L373.26108 14.671038L374.2142 14.671038L374.2142 15.608538Q374.57358 14.952288 374.87045 14.749163Q375.18295 14.530413 375.55795 14.530413Q376.0892 14.530413 376.63608 14.858538L376.2767 15.842913Q375.88608 15.608538 375.51108 15.608538Q375.1517 15.608538 374.87045 15.827288Q374.60483 16.030413 374.49545 16.405413Q374.30795 16.967913 374.30795 17.624163L374.30795 20.889788L373.26108 20.889788ZM377.2767 13.514788L377.2767 12.296038L378.3392 12.296038L378.3392 13.514788L377.2767 13.514788ZM377.2767 20.889788L377.2767 14.671038L378.3392 14.671038L378.3392 20.889788L377.2767 20.889788ZM384.3392 18.608538L385.37045 18.749163Q385.19858 19.811663 384.49545 20.421038Q383.79233 21.030413 382.7767 21.030413Q381.49545 21.030413 380.7142 20.202288Q379.94858 19.358538 379.94858 17.796038Q379.94858 16.796038 380.2767 16.046038Q380.62045 15.280413 381.29233 14.905413Q381.97983 14.530413 382.79233 14.530413Q383.79233 14.530413 384.43295 15.046038Q385.0892 15.546038 385.2767 16.499163L384.24545 16.655413Q384.10483 16.030413 383.72983 15.717913Q383.35483 15.389788 382.82358 15.389788Q382.0267 15.389788 381.5267 15.967913Q381.0267 16.530413 381.0267 17.764788Q381.0267 19.030413 381.51108 19.592913Q381.99545 20.155413 382.76108 20.155413Q383.38608 20.155413 383.79233 19.780413Q384.2142 19.405413 384.3392 18.608538ZM386.2767 20.889788L386.2767 12.296038L387.3392 12.296038L387.3392 17.202288L389.82358 14.671038L391.19858 14.671038L388.80795 16.967913L391.43295 20.889788L390.13608 20.889788L388.07358 17.702288L387.3392 18.421038L387.3392 20.889788L386.2767 20.889788Z" fill-rule="nonzero"/></svg>